<svg width="30" height="26" viewBox="0 0 30 26" fill="none" xmlns="http://www.w3.org/2000/svg">
<path fill-rule="evenodd" clip-rule="evenodd" d="M0.188648 2.78254C0.0661292 3.16642 0 3.57549 0 4V4.50891L4.23144 0H4C3.48601 0 2.99466 0.0969452 2.54324 0.273548L0.188648 2.78254ZM5.6 7.31572e-05L0 5.96729V7.49247L7.0314 0H5.59993L5.6 7.31572e-05ZM27.6618 0.360477C27.9874 0.509388 28.2896 0.700706 28.5612 0.927367L5.31569 25.6972L5.59989 26H4C3.87084 26 3.74312 25.9939 3.61709 25.9819L27.6618 0.360477ZM8.39988 26H6.40011L29.2435 1.65866C29.4884 1.99736 29.6816 2.37594 29.8114 2.7828L29.7157 2.68078L8.11568 25.6972L8.39988 26ZM9.20011 26H11.1999L10.9157 25.6972L29.7157 5.66438L30 5.96733V4C30 3.94627 29.9989 3.89278 29.9968 3.83956L9.20011 26ZM13.9999 26H12.0001L30 6.8198V8.95094L29.7157 8.64799L13.7157 25.6972L13.9999 26ZM14.8001 26H16.7999L16.5157 25.6972L29.7157 11.6316L30 11.9346V9.80341L14.8001 26ZM19.5999 26H17.6001L30 12.787V14.9182L29.7157 14.6152L19.3157 25.6972L19.5999 26ZM20.4001 26H22.3999L22.1157 25.6972L29.7157 17.5988L30 17.9018V15.7706L20.4001 26ZM25.1999 26H23.2001L30 18.7542V20.8854L29.7157 20.5824L24.9157 25.6972L25.1999 26ZM26.0001 26C28.2092 25.9999 30 24.2091 30 22V21.7378L26.0001 26ZM2.54313 25.7264C2.19229 25.5891 1.86556 25.4038 1.57108 25.1784L25.2 2.03006e-06L26 0C26.2007 0 26.398 0.0147871 26.5908 0.0433315L2.51569 25.6972L2.54313 25.7264ZM0.307628 23.541C0.449021 23.8794 0.635577 24.1942 0.859761 24.4779L23.8314 0H22.4L0.307628 23.541ZM21.0313 0H19.5998L19.6 0.000174382L0 20.8854V22C0 22.1317 0.00636646 22.2619 0.0188084 22.3904L21.0313 0ZM0 17.9018V19.427L18.2315 0H16.7999L16.8 0.000138151L0 17.9018ZM0 16.4434V14.9181L14 0.000102874L13.9999 0H15.4315L0 16.4434ZM0 11.9346V13.4598L12.6315 0H11.1999L11.2 0.000146314L0 11.9346ZM0 10.4762V8.95085L8.4 2.90212e-05L8.39997 0H9.83151L0 10.4762Z" fill="#343434"/>
</svg>
